<svg xmlns="http://www.w3.org/2000/svg" viewBox="0 0 400.28 319.78"><defs><style>.cls-1{fill:#020202;}</style></defs><g id="Capa_2" data-name="Capa 2"><g id="Capa_1-2" data-name="Capa 1"><path class="cls-1" d="M312.73,319.78c-3.3-2.1-7.2-1.68-10.8-2.46-26.71-5.79-47.53-20.84-64.12-41.79-26.69-33.67-52.92-67.7-80.4-100.73a8,8,0,0,0-7.13-3.34c-8.47.2-16.88.77-25.3,1.78-2.92.35-4,1.22-3.9,4.23.53,33.84.83,67.67,1.48,101.5a51.7,51.7,0,0,0,5,22.15C132,310.19,139,316.3,149,318.62H0c17.25-5.52,25.76-17.26,26.54-36.72,1.21-30,.34-60,.5-90.08q.38-70.2.44-140.38A99,99,0,0,0,25,27.77C21.74,14.46,14.59,4.73.45.87h5c26.89.05,53.78.46,80.66.07,30.37-.43,60.74-1.27,91.1-.8,21.78.33,42.8,4.36,62,15.53,31.28,18.2,37.38,55.09,26.28,84.51-7.34,19.47-21.43,33.64-37.91,45.63-7.49,5.44-15,10.88-23.86,14.11-2.39.87-5.41,1.81-2.56,5.85,25.88,36.7,53.76,71.66,88.06,101C313.14,287.22,339.2,304,370,312.24c9.95,2.68,20.17,3.89,30.3,5.62-.84,1.92-2.56,1-3.83,1-22.15.17-44.29.24-66.44.39-1.77,0-3.63-.53-5.32.51Zm-190.27-231h-1.32c0,19.74,0,39.47,0,59.2,0,2.77.26,4.13,3.66,4.06,11.77-.27,23.57.15,35.28-1.56,19.31-2.82,35.78-10.51,47.13-27.23,13.58-20,16.27-41.93,11.86-65.11-3.43-17.95-14-30-31.21-36.1A92.44,92.44,0,0,0,161,17.26c-9.44-.43-18.92-.47-28.24,1.69-8.11,1.88-10.21,4.29-10.24,12.6C122.41,50.62,122.46,69.69,122.46,88.76ZM59.62,98.37c7.92-15.45,7.9-15.66-2.16-28.08-.1-.12-.19-.27-.28-.4C56,68.28,54.73,67,52.7,68.65s-2.64,3.37-.64,5.44c2.65,2.74,5.16,5.64,8,8.16,1.78,1.57,2,2.43.23,4.17a43.26,43.26,0,0,0-9.1,12.94c-2.26,5.08-.23,8.89,4.55,8.59q20.34-1.29,40.53-4.15c1.51-.21,4,.2,3.78-2.11-.15-2-2.43-1.71-4-1.8l-19-1.11c2.83-5.17,5.18-9.66,7.75-14a2.72,2.72,0,0,0-.08-3.17C82.05,77.2,79.45,72.77,76,68.9c-1.41-1.59-2.72-2.43-4.58-.82s-1.31,3.14.12,4.66c3.29,3.49,6.56,7,9.74,10.38-3.34,3.52-7.22,6.63-9.81,10.59C68.49,98.3,64.9,99.69,59.62,98.37Zm7.31,168a105.86,105.86,0,0,0,11.4,12.07c2.33,2,4.23,1.95,6.36-.43,5.42-6.08,10.53-12.38,14.5-19.53.61-1.1,1.85-2.37.58-3.56-1.62-1.5-2.69.25-3.72,1.15a141.51,141.51,0,0,0-16.22,17.16c-2.83-4.06-4.86-8.4-7.91-12.11-2.44-3-4.37-3.05-6.69,0a116.88,116.88,0,0,0-14.12,23.9c-2.14,4.9-.91,6.64,4.61,6.56,13.61-.2,27.22-.5,40.82-.83,1.18,0,2.61.69,4.15-1.45-13.55-7.45-28-1.86-41.94-3.83C61.46,279.18,64.1,273,66.93,266.38Zm-9.48-33.72c3.54-7.23,6.85-13.86,10-20.54.77-1.63,1.86-2,3.53-1.92,8.4.23,16.33-2.36,24.33-4.4,1-.27,3.06-.05,2.9-2s-1.94-1.44-3.14-1.51a178.21,178.21,0,0,0-23.34,0c-1.57.12-3,.32-4,1.64-6.71,9.47-12.72,19.36-17,30.16-1.31,3.28-.43,5.72,4,5.74A146,146,0,0,1,78,242c6.21,1,12.41,2,18.63,3,1.18.17,3,.83,3.34-1,.35-1.67-1.36-2.08-2.53-2.58a34.57,34.57,0,0,0-3.78-1.19C82.08,236.82,70.14,235,57.45,232.66ZM75.37,52c-7.15-.37-13.59-.72-20-1-3.43-.18-5,2.06-5,4.91s2.85,2.25,4.58,2.21q10.43-.25,20.83-1c5.62-.38,6.79-2.13,4.64-7.33-2.06-5-4.61-9.72-7.07-14.84,8.21-.7,16.1-1.35,24-2.07,1-.09,2.66.6,2.84-1S98.7,29.8,97.5,29.39a11,11,0,0,0-3-.25c-7.94-.37-15.87-.83-23.81-1.06-2,0-4.56-1.14-5.91,1.25s-.56,4.76.83,7C68.8,41.32,71.87,46.36,75.37,52ZM69.06,183.18c.76,1.39-.17,2.13-.49,3-.77,2.19-3.09,4.59.08,6.5s4.23-1.22,5.74-3a7.74,7.74,0,0,0,1.37-2.05c1.74-4.35,5.24-5.32,9.48-5.34,5,0,10.06.11,15.58-1.69-2.93-2.72-6.15-1.94-8.84-2.8s-7.09.78-8.27-1.68c-1.08-2.24,2.35-5.07,3.31-7.84.45-1.3,2.3-2.89.82-4-1.72-1.27-3.12.86-3.82,2-6,9.87-15.14,11.38-25.49,10a27.87,27.87,0,0,0-4,0c-2.16,0-4.62-.28-4.38,3.09.22,3.19,1.83,4.77,5.19,4.5C60,183.62,64.59,183.44,69.06,183.18ZM100,116.77c-1.28-1.49-2.83-1-4.21-.71-6.45,1.23-13.72,3-17,8.37-5.71,9.51-12.82,7.35-20.64,5.1-.79-.23-1.6-.42-2.41-.6-3.07-.71-4.69.76-5.38,3.61-.82,3.35,1.78,3.46,3.8,3.8,8.14,1.37,16.27,2.94,24.48,3.8,7.07.74,14.19,2,21.75,1.26-.58-.69-.74-1.07-1-1.15-3.61-1.13-7.22-2.29-10.86-3.32-8.44-2.38-9.1-4.79-3.18-11.55,2.82-3.22,6.44-5.11,10.33-6.61C97.17,118.21,98.89,118.21,100,116.77Zm.47,37.37c-1-2.4-2.72-2.25-4.08-2.49a256.31,256.31,0,0,0-41.84-4c-2.39,0-4.41-.11-4.39,3.05,0,3,.78,5,4.54,4.84,6.44-.25,12.9,0,19.35-.08C82.76,155.35,91.51,155.58,100.46,154.14Z"/></g></g></svg>